<mxfile host="Electron" modified="2023-12-25T03:40:41.463Z" agent="Mozilla/5.0 (Windows NT 10.0; Win64; x64) AppleWebKit/537.36 (KHTML, like Gecko) draw.io/22.1.11 Chrome/114.0.5735.289 Electron/25.9.8 Safari/537.36" etag="ke8_rstxOo1h9DvMgPy1" version="22.1.11" type="device">
  <diagram name="第 1 页" id="D3BQe009vHcldcBDITee">
    <mxGraphModel dx="724" dy="461" grid="1" gridSize="10" guides="1" tooltips="1" connect="1" arrows="1" fold="1" page="1" pageScale="1" pageWidth="827" pageHeight="1169" math="0" shadow="0">
      <root>
        <mxCell id="0" />
        <mxCell id="1" parent="0" />
        <mxCell id="X75WPi0ZbdI8c19y51R8-2" value="用户" style="rounded=0;whiteSpace=wrap;html=1;" parent="1" vertex="1">
          <mxGeometry x="140" y="40" width="120" height="420" as="geometry" />
        </mxCell>
        <mxCell id="X75WPi0ZbdI8c19y51R8-6" value="营业员" style="rounded=0;whiteSpace=wrap;html=1;" parent="1" vertex="1">
          <mxGeometry x="670" y="30" width="120" height="430" as="geometry" />
        </mxCell>
        <mxCell id="X75WPi0ZbdI8c19y51R8-19" value="用户查看订单请求" style="text;html=1;align=center;verticalAlign=middle;resizable=0;points=[];autosize=1;strokeColor=none;fillColor=none;" parent="1" vertex="1">
          <mxGeometry x="250" y="370" width="120" height="30" as="geometry" />
        </mxCell>
        <mxCell id="6CI7_wJBpvBbVGapMSP6-3" value="2" style="swimlane;whiteSpace=wrap;html=1;" vertex="1" parent="1">
          <mxGeometry x="380.92" y="190" width="85" height="70" as="geometry" />
        </mxCell>
        <mxCell id="6CI7_wJBpvBbVGapMSP6-4" value="更新订单信息" style="text;html=1;align=center;verticalAlign=middle;resizable=0;points=[];autosize=1;strokeColor=none;fillColor=none;" vertex="1" parent="6CI7_wJBpvBbVGapMSP6-3">
          <mxGeometry x="-7.5" y="30" width="100" height="30" as="geometry" />
        </mxCell>
        <mxCell id="6CI7_wJBpvBbVGapMSP6-5" value="" style="endArrow=classic;html=1;rounded=0;" edge="1" parent="1">
          <mxGeometry width="50" height="50" relative="1" as="geometry">
            <mxPoint x="260" y="230" as="sourcePoint" />
            <mxPoint x="381.92" y="230" as="targetPoint" />
          </mxGeometry>
        </mxCell>
        <mxCell id="6CI7_wJBpvBbVGapMSP6-6" value="4.1" style="swimlane;whiteSpace=wrap;html=1;" vertex="1" collapsed="1" parent="1">
          <mxGeometry x="362.92" y="380" width="71" height="70" as="geometry">
            <mxRectangle x="379" y="190" width="71" height="75" as="alternateBounds" />
          </mxGeometry>
        </mxCell>
        <mxCell id="6CI7_wJBpvBbVGapMSP6-7" value="查看订单" style="text;html=1;align=center;verticalAlign=middle;resizable=0;points=[];autosize=1;strokeColor=none;fillColor=none;" vertex="1" parent="6CI7_wJBpvBbVGapMSP6-6">
          <mxGeometry y="33" width="70" height="30" as="geometry" />
        </mxCell>
        <mxCell id="6CI7_wJBpvBbVGapMSP6-10" value="查看订单" style="text;html=1;align=center;verticalAlign=middle;resizable=0;points=[];autosize=1;strokeColor=none;fillColor=none;" vertex="1" parent="6CI7_wJBpvBbVGapMSP6-6">
          <mxGeometry x="1.079999999999984" y="30" width="70" height="30" as="geometry" />
        </mxCell>
        <mxCell id="6CI7_wJBpvBbVGapMSP6-9" value="" style="endArrow=classic;html=1;rounded=0;" edge="1" parent="1">
          <mxGeometry width="50" height="50" relative="1" as="geometry">
            <mxPoint x="260" y="400" as="sourcePoint" />
            <mxPoint x="360" y="400" as="targetPoint" />
          </mxGeometry>
        </mxCell>
        <mxCell id="6CI7_wJBpvBbVGapMSP6-14" value="" style="swimlane;horizontal=0;whiteSpace=wrap;html=1;startSize=23;" vertex="1" parent="1">
          <mxGeometry x="364" y="120" width="100" height="30" as="geometry">
            <mxRectangle x="350.5" y="160" width="130" height="40" as="alternateBounds" />
          </mxGeometry>
        </mxCell>
        <mxCell id="6CI7_wJBpvBbVGapMSP6-15" value="&lt;font style=&quot;font-size: 11px;&quot;&gt;D1&lt;/font&gt;" style="text;html=1;align=center;verticalAlign=middle;resizable=0;points=[];autosize=1;strokeColor=none;fillColor=none;" vertex="1" parent="6CI7_wJBpvBbVGapMSP6-14">
          <mxGeometry x="-10.5" width="40" height="30" as="geometry" />
        </mxCell>
        <mxCell id="6CI7_wJBpvBbVGapMSP6-16" value="门票信息" style="text;html=1;align=center;verticalAlign=middle;resizable=0;points=[];autosize=1;strokeColor=none;fillColor=none;" vertex="1" parent="6CI7_wJBpvBbVGapMSP6-14">
          <mxGeometry x="28.5" width="70" height="30" as="geometry" />
        </mxCell>
        <mxCell id="6CI7_wJBpvBbVGapMSP6-23" value="用户购票" style="text;html=1;strokeColor=none;fillColor=none;align=center;verticalAlign=middle;whiteSpace=wrap;rounded=0;" vertex="1" parent="1">
          <mxGeometry x="291.92" y="200" width="60" height="30" as="geometry" />
        </mxCell>
        <mxCell id="6CI7_wJBpvBbVGapMSP6-26" value="" style="endArrow=classic;html=1;rounded=0;exitX=0.114;exitY=1.039;exitDx=0;exitDy=0;exitPerimeter=0;" edge="1" parent="1" source="6CI7_wJBpvBbVGapMSP6-16">
          <mxGeometry width="50" height="50" relative="1" as="geometry">
            <mxPoint x="400" y="150" as="sourcePoint" />
            <mxPoint x="400" y="190" as="targetPoint" />
          </mxGeometry>
        </mxCell>
        <mxCell id="6CI7_wJBpvBbVGapMSP6-31" value="" style="swimlane;horizontal=0;whiteSpace=wrap;html=1;" vertex="1" parent="1">
          <mxGeometry x="362.92" y="290" width="106" height="50" as="geometry" />
        </mxCell>
        <mxCell id="6CI7_wJBpvBbVGapMSP6-32" value="D2" style="text;html=1;strokeColor=none;fillColor=none;align=center;verticalAlign=middle;whiteSpace=wrap;rounded=0;" vertex="1" parent="6CI7_wJBpvBbVGapMSP6-31">
          <mxGeometry x="-20.5" y="10" width="60" height="30" as="geometry" />
        </mxCell>
        <mxCell id="6CI7_wJBpvBbVGapMSP6-33" value="订单信息" style="text;html=1;align=center;verticalAlign=middle;resizable=0;points=[];autosize=1;strokeColor=none;fillColor=none;" vertex="1" parent="6CI7_wJBpvBbVGapMSP6-31">
          <mxGeometry x="25" y="10" width="70" height="30" as="geometry" />
        </mxCell>
        <mxCell id="6CI7_wJBpvBbVGapMSP6-36" value="" style="endArrow=classic;html=1;rounded=0;entryX=0.25;entryY=0;entryDx=0;entryDy=0;" edge="1" parent="1" target="6CI7_wJBpvBbVGapMSP6-6">
          <mxGeometry width="50" height="50" relative="1" as="geometry">
            <mxPoint x="380" y="340" as="sourcePoint" />
            <mxPoint x="470" y="240" as="targetPoint" />
          </mxGeometry>
        </mxCell>
        <mxCell id="6CI7_wJBpvBbVGapMSP6-38" value="" style="endArrow=classic;html=1;rounded=0;entryX=1.016;entryY=0.953;entryDx=0;entryDy=0;entryPerimeter=0;" edge="1" parent="1" target="X75WPi0ZbdI8c19y51R8-2">
          <mxGeometry width="50" height="50" relative="1" as="geometry">
            <mxPoint x="360" y="440" as="sourcePoint" />
            <mxPoint x="429" y="390" as="targetPoint" />
          </mxGeometry>
        </mxCell>
        <mxCell id="6CI7_wJBpvBbVGapMSP6-39" value="返回信息" style="text;html=1;strokeColor=none;fillColor=none;align=center;verticalAlign=middle;whiteSpace=wrap;rounded=0;" vertex="1" parent="1">
          <mxGeometry x="290" y="410" width="60" height="30" as="geometry" />
        </mxCell>
        <mxCell id="6CI7_wJBpvBbVGapMSP6-43" value="4.1" style="swimlane;whiteSpace=wrap;html=1;startSize=23;" vertex="1" parent="1">
          <mxGeometry x="451" y="380" width="85" height="70" as="geometry" />
        </mxCell>
        <mxCell id="6CI7_wJBpvBbVGapMSP6-44" value="产生报表" style="text;html=1;align=center;verticalAlign=middle;resizable=0;points=[];autosize=1;strokeColor=none;fillColor=none;" vertex="1" parent="6CI7_wJBpvBbVGapMSP6-43">
          <mxGeometry y="30" width="70" height="30" as="geometry" />
        </mxCell>
        <mxCell id="6CI7_wJBpvBbVGapMSP6-45" value="" style="endArrow=classic;html=1;rounded=0;" edge="1" parent="1">
          <mxGeometry width="50" height="50" relative="1" as="geometry">
            <mxPoint x="460" y="340" as="sourcePoint" />
            <mxPoint x="460" y="380" as="targetPoint" />
          </mxGeometry>
        </mxCell>
        <mxCell id="6CI7_wJBpvBbVGapMSP6-50" value="订单信息" style="text;html=1;align=center;verticalAlign=middle;resizable=0;points=[];autosize=1;strokeColor=none;fillColor=none;" vertex="1" parent="1">
          <mxGeometry x="365" y="408" width="70" height="30" as="geometry" />
        </mxCell>
        <mxCell id="6CI7_wJBpvBbVGapMSP6-52" value="" style="endArrow=classic;html=1;rounded=0;exitX=-0.016;exitY=0.114;exitDx=0;exitDy=0;exitPerimeter=0;" edge="1" parent="1" source="X75WPi0ZbdI8c19y51R8-6">
          <mxGeometry width="50" height="50" relative="1" as="geometry">
            <mxPoint x="580.0000000000001" y="79.99999999999991" as="sourcePoint" />
            <mxPoint x="450" y="80" as="targetPoint" />
          </mxGeometry>
        </mxCell>
        <mxCell id="6CI7_wJBpvBbVGapMSP6-54" value="修改门票请求" style="text;html=1;strokeColor=none;fillColor=none;align=center;verticalAlign=middle;whiteSpace=wrap;rounded=0;" vertex="1" parent="1">
          <mxGeometry x="520" y="50" width="60" height="30" as="geometry" />
        </mxCell>
        <mxCell id="6CI7_wJBpvBbVGapMSP6-55" value="1" style="swimlane;whiteSpace=wrap;html=1;startSize=20;" vertex="1" parent="1">
          <mxGeometry x="370" y="40" width="80" height="50" as="geometry" />
        </mxCell>
        <mxCell id="6CI7_wJBpvBbVGapMSP6-63" value="更新门票清单信息" style="text;html=1;strokeColor=none;fillColor=none;align=center;verticalAlign=middle;whiteSpace=wrap;rounded=0;" vertex="1" parent="6CI7_wJBpvBbVGapMSP6-55">
          <mxGeometry x="8.54000000000002" y="20" width="60" height="30" as="geometry" />
        </mxCell>
        <mxCell id="6CI7_wJBpvBbVGapMSP6-66" value="" style="endArrow=classic;startArrow=classic;html=1;rounded=0;" edge="1" parent="6CI7_wJBpvBbVGapMSP6-55">
          <mxGeometry width="50" height="50" relative="1" as="geometry">
            <mxPoint x="27.920000000000016" y="50" as="sourcePoint" />
            <mxPoint x="28" y="78" as="targetPoint" />
          </mxGeometry>
        </mxCell>
        <mxCell id="6CI7_wJBpvBbVGapMSP6-57" value="订单信息" style="text;html=1;strokeColor=none;fillColor=none;align=center;verticalAlign=middle;whiteSpace=wrap;rounded=0;" vertex="1" parent="1">
          <mxGeometry x="396" y="260" width="60" height="30" as="geometry" />
        </mxCell>
        <mxCell id="6CI7_wJBpvBbVGapMSP6-58" value="订单信息" style="text;html=1;strokeColor=none;fillColor=none;align=center;verticalAlign=middle;whiteSpace=wrap;rounded=0;" vertex="1" parent="1">
          <mxGeometry x="380.92" y="340" width="60" height="30" as="geometry" />
        </mxCell>
        <mxCell id="6CI7_wJBpvBbVGapMSP6-59" value="订单信息" style="text;html=1;strokeColor=none;fillColor=none;align=center;verticalAlign=middle;whiteSpace=wrap;rounded=0;" vertex="1" parent="1">
          <mxGeometry x="456" y="340" width="60" height="30" as="geometry" />
        </mxCell>
        <mxCell id="6CI7_wJBpvBbVGapMSP6-60" value="" style="endArrow=classic;html=1;rounded=0;entryX=-0.002;entryY=0.906;entryDx=0;entryDy=0;entryPerimeter=0;" edge="1" parent="1" target="X75WPi0ZbdI8c19y51R8-6">
          <mxGeometry width="50" height="50" relative="1" as="geometry">
            <mxPoint x="536" y="420" as="sourcePoint" />
            <mxPoint x="586" y="370" as="targetPoint" />
          </mxGeometry>
        </mxCell>
        <mxCell id="6CI7_wJBpvBbVGapMSP6-56" value="门票信息" style="text;html=1;strokeColor=none;fillColor=none;align=center;verticalAlign=middle;whiteSpace=wrap;rounded=0;" vertex="1" parent="1">
          <mxGeometry x="408.92" y="90" width="60" height="30" as="geometry" />
        </mxCell>
        <mxCell id="6CI7_wJBpvBbVGapMSP6-69" value="3" style="swimlane;whiteSpace=wrap;html=1;" vertex="1" parent="1">
          <mxGeometry x="530" y="280" width="70" height="70" as="geometry" />
        </mxCell>
        <mxCell id="6CI7_wJBpvBbVGapMSP6-70" value="更新订单信息" style="text;html=1;strokeColor=none;fillColor=none;align=center;verticalAlign=middle;whiteSpace=wrap;rounded=0;" vertex="1" parent="6CI7_wJBpvBbVGapMSP6-69">
          <mxGeometry x="5" y="30" width="60" height="30" as="geometry" />
        </mxCell>
        <mxCell id="6CI7_wJBpvBbVGapMSP6-71" value="" style="endArrow=classic;html=1;rounded=0;exitX=0.002;exitY=0.675;exitDx=0;exitDy=0;exitPerimeter=0;" edge="1" parent="1" source="X75WPi0ZbdI8c19y51R8-6">
          <mxGeometry width="50" height="50" relative="1" as="geometry">
            <mxPoint x="420" y="300" as="sourcePoint" />
            <mxPoint x="600" y="320" as="targetPoint" />
          </mxGeometry>
        </mxCell>
        <mxCell id="6CI7_wJBpvBbVGapMSP6-72" value="修改订单请求" style="text;html=1;strokeColor=none;fillColor=none;align=center;verticalAlign=middle;whiteSpace=wrap;rounded=0;" vertex="1" parent="1">
          <mxGeometry x="600" y="290" width="70" height="30" as="geometry" />
        </mxCell>
        <mxCell id="6CI7_wJBpvBbVGapMSP6-76" value="" style="endArrow=classic;startArrow=classic;html=1;rounded=0;exitX=1;exitY=0.5;exitDx=0;exitDy=0;entryX=0;entryY=0.5;entryDx=0;entryDy=0;" edge="1" parent="1" source="6CI7_wJBpvBbVGapMSP6-31" target="6CI7_wJBpvBbVGapMSP6-69">
          <mxGeometry width="50" height="50" relative="1" as="geometry">
            <mxPoint x="480" y="320" as="sourcePoint" />
            <mxPoint x="530" y="270" as="targetPoint" />
          </mxGeometry>
        </mxCell>
        <mxCell id="6CI7_wJBpvBbVGapMSP6-77" value="订单信息" style="text;html=1;strokeColor=none;fillColor=none;align=center;verticalAlign=middle;whiteSpace=wrap;rounded=0;" vertex="1" parent="1">
          <mxGeometry x="470" y="290" width="60" height="30" as="geometry" />
        </mxCell>
        <mxCell id="6CI7_wJBpvBbVGapMSP6-78" value="门票销售、营业员收费情况" style="text;html=1;strokeColor=none;fillColor=none;align=center;verticalAlign=middle;whiteSpace=wrap;rounded=0;" vertex="1" parent="1">
          <mxGeometry x="570" y="370" width="60" height="30" as="geometry" />
        </mxCell>
        <mxCell id="6CI7_wJBpvBbVGapMSP6-81" value="" style="endArrow=classic;startArrow=classic;html=1;rounded=0;" edge="1" parent="1">
          <mxGeometry width="50" height="50" relative="1" as="geometry">
            <mxPoint x="400" y="290" as="sourcePoint" />
            <mxPoint x="400" y="260" as="targetPoint" />
          </mxGeometry>
        </mxCell>
        <mxCell id="6CI7_wJBpvBbVGapMSP6-83" value="门票信息" style="text;html=1;align=center;verticalAlign=middle;resizable=0;points=[];autosize=1;strokeColor=none;fillColor=none;" vertex="1" parent="1">
          <mxGeometry x="398.92" y="150" width="70" height="30" as="geometry" />
        </mxCell>
      </root>
    </mxGraphModel>
  </diagram>
</mxfile>
